<svg xmlns="http://www.w3.org/2000/svg" xmlns:v="https://svgstorm.com"
viewBox = "0 0 414 212"
width="414"
height="212">
<g fill="None" fill-opacity="0.0" stroke="#041321" stroke-opacity="1.00" stroke-width="0.3"><path d="
M 0.00 212.00 
L 414.00 212.00
L 414.00 104.00
C 409.11 103.33 404.17 102.62 399.00 103.00
C 398.01 108.01 399.65 113.17 396.00 117.00
C 378.94 167.22 309.39 179.94 267.92 152.08 C 261.39 143.66 251.34 142.89 244.00 137.00
C 242.19 135.17 242.77 131.20 244.00 129.00
C 240.46 129.22 239.07 133.74 236.00 135.00
C 232.35 142.17 220.84 147.20 223.98 156.02 C 224.06 166.36 207.47 168.05 203.70 159.30 C 199.43 146.24 217.38 151.16 220.75 142.75 C 249.64 113.70 275.52 68.24 320.00 66.00 C 337.63 66.31 357.79 76.48 362.00 95.00
C 363.10 95.03 362.81 96.34 363.00 97.00
C 365.51 104.40 364.40 114.79 358.00 120.00
C 344.41 139.78 316.37 143.87 295.92 134.08 C 288.45 126.92 272.81 126.87 271.00 116.00 C 272.32 101.59 297.80 109.64 289.00 122.00
C 307.83 140.29 348.35 136.13 355.33 108.33 C 361.40 77.61 318.90 62.61 296.92 77.92 C 276.01 89.44 258.65 108.55 244.00 127.00
C 244.40 128.62 245.89 126.32 247.00 127.00
C 256.40 120.22 267.64 130.60 263.78 140.22 C 298.61 173.75 368.68 165.65 387.77 118.77 C 405.63 51.30 305.79 21.64 264.25 64.25 C 235.26 84.14 215.04 113.27 191.00 139.00
C 190.70 140.25 189.17 140.71 189.00 142.00
C 187.03 147.01 179.33 153.38 174.00 157.00
C 175.74 160.68 180.79 158.33 184.00 159.00
C 215.28 129.80 238.15 91.26 274.00 68.00
C 301.97 45.74 349.20 47.43 371.25 77.75 C 397.64 109.28 360.20 153.11 325.00 152.00
C 321.58 154.21 316.18 152.42 312.00 153.00
C 306.16 157.89 298.88 155.67 293.00 153.00
C 287.38 141.14 308.44 134.42 312.92 146.08 C 342.81 154.63 383.16 123.29 372.03 91.97 C 365.39 71.40 343.81 58.40 323.00 58.00
C 319.33 58.00 315.67 58.00 312.00 58.00
C 283.35 60.55 262.37 83.38 243.25 103.25 C 223.56 123.11 207.94 143.59 188.00 163.00
C 189.31 166.20 189.23 169.77 188.00 173.00
C 183.55 180.65 174.77 178.16 168.00 176.00
C 166.57 172.59 166.66 168.68 166.00 165.00
C 152.54 172.76 137.44 193.76 122.00 178.00
C 120.09 165.76 138.33 160.55 146.00 169.00
C 146.36 168.77 147.00 169.00 147.00 169.00
C 161.94 156.50 176.78 141.90 190.75 127.75 C 203.65 110.68 215.62 96.60 231.25 82.25 C 237.34 73.50 247.12 68.00 252.00 60.00
C 264.92 56.31 275.32 42.48 289.00 43.00
C 309.80 36.95 333.75 37.68 354.00 45.00
C 369.00 47.31 381.50 61.66 392.00 73.00
C 395.36 64.15 405.71 64.45 414.00 65.00
L 414.00 0.00
L 0.00 0.00
L 0.00 212.00
M 152.00 66.00 
C 113.93 27.54 27.96 42.77 25.00 103.00 C 28.56 164.41 115.12 176.96 153.03 140.03 C 191.93 110.08 216.88 65.66 256.23 36.23 C 267.65 32.88 278.55 14.05 289.77 28.23 C 289.43 48.48 266.95 29.18 258.77 42.77 C 211.17 79.32 182.29 143.55 121.78 163.78 C 82.49 174.80 32.86 159.01 19.22 117.78 C 6.60 75.25 51.34 38.12 91.00 39.00 C 106.56 38.30 121.35 40.83 135.07 46.93 C 147.59 50.99 154.91 64.19 167.75 66.25 C 181.61 82.15 141.82 85.69 152.00 66.00
M 232.00 45.00 
C 194.04 79.71 171.44 122.77 125.75 146.75 C 86.87 167.82 20.27 136.37 37.98 86.98 C 45.71 66.48 67.24 56.80 87.02 53.02 C 99.42 57.18 110.71 43.81 120.75 53.25 C 127.78 65.95 103.21 71.62 102.00 58.00
C 61.94 50.08 19.40 98.58 53.25 131.75 C 83.60 160.16 130.64 146.91 155.70 118.70 C 180.29 94.77 202.11 65.55 227.00 42.00
C 221.22 32.11 235.65 24.84 242.74 31.26 C 251.37 37.19 239.62 49.98 232.00 45.00
M 199.00 57.00 
C 177.42 81.03 157.95 107.05 132.25 126.25 C 106.75 151.63 46.76 138.89 51.33 97.33 C 57.15 71.76 87.48 62.20 111.00 68.00 C 122.35 71.20 130.22 81.12 141.74 83.26 C 152.11 95.44 127.24 104.21 123.23 90.77 C 128.69 78.21 110.07 73.89 100.78 72.22 C 77.82 68.29 47.80 92.19 62.31 115.69 C 75.41 137.52 107.83 137.93 125.70 122.70 C 151.42 105.71 170.04 76.56 193.00 55.00
C 186.69 46.84 197.77 37.11 206.07 41.93 C 216.41 45.41 209.06 61.01 199.00 57.00 Z"/>
</g>
<g fill="None" fill-opacity="0.0" stroke="#EAECEE" stroke-opacity="1.00" stroke-width="0.3"><path d="
M 152.00 66.00 
C 141.82 85.69 181.61 82.15 167.75 66.25 C 154.91 64.19 147.59 50.99 135.07 46.93 C 121.35 40.83 106.56 38.30 91.00 39.00 C 51.34 38.12 6.60 75.25 19.22 117.78 C 32.86 159.01 82.49 174.80 121.78 163.78 C 182.29 143.55 211.17 79.32 258.77 42.77 C 266.95 29.18 289.43 48.48 289.77 28.23 C 278.55 14.05 267.65 32.88 256.23 36.23 C 216.88 65.66 191.93 110.08 153.03 140.03 C 115.12 176.96 28.56 164.41 25.00 103.00 C 27.96 42.77 113.93 27.54 152.00 66.00
M 283.00 26.00 
C 288.38 30.19 282.29 38.26 276.78 34.22 C 270.65 30.73 277.85 23.77 283.00 26.00
M 164.00 68.00 
C 168.91 71.61 163.41 79.10 158.33 76.67 C 152.51 72.59 157.68 65.27 164.00 68.00 Z"/>
</g>
<g fill="None" fill-opacity="0.0" stroke="#10131B" stroke-opacity="1.00" stroke-width="0.3"><path d="
M 283.00 26.00 
C 277.85 23.77 270.65 30.73 276.78 34.22 C 282.29 38.26 288.38 30.19 283.00 26.00 Z"/>
</g>
<g fill="None" fill-opacity="0.0" stroke="#E4E6E9" stroke-opacity="1.00" stroke-width="0.3"><path d="
M 232.00 45.00 
C 239.62 49.98 251.37 37.19 242.74 31.26 C 235.65 24.84 221.22 32.11 227.00 42.00
C 202.11 65.55 180.29 94.77 155.70 118.70 C 130.64 146.91 83.60 160.16 53.25 131.75 C 19.40 98.58 61.94 50.08 102.00 58.00
C 103.21 71.62 127.78 65.95 120.75 53.25 C 110.71 43.81 99.42 57.18 87.02 53.02 C 67.24 56.80 45.71 66.48 37.98 86.98 C 20.27 136.37 86.87 167.82 125.75 146.75 C 171.44 122.77 194.04 79.71 232.00 45.00
M 239.00 33.00 
C 244.04 37.24 238.34 43.03 233.00 41.00 C 227.45 37.53 233.83 30.60 239.00 33.00
M 115.00 53.00 
C 120.04 57.05 114.93 64.18 109.33 61.67 C 103.51 58.02 109.27 50.53 115.00 53.00 Z"/>
</g>
<g fill="None" fill-opacity="0.0" stroke="#0B0F18" stroke-opacity="1.00" stroke-width="0.3"><path d="
M 239.00 33.00 
C 233.83 30.60 227.45 37.53 233.00 41.00 C 238.34 43.03 244.04 37.24 239.00 33.00 Z"/>
</g>
<g fill="None" fill-opacity="0.0" stroke="#2A9ACA" stroke-opacity="1.00" stroke-width="0.3"><path d="
M 289.00 43.00 
C 279.92 45.80 272.07 51.08 264.00 56.00
C 251.73 65.41 239.24 75.54 228.00 87.00
C 227.80 87.40 228.00 88.00 228.00 88.00
C 227.19 90.04 224.73 90.97 224.00 93.00
C 213.39 103.10 205.39 115.13 195.00 125.00
C 188.68 131.69 183.30 139.31 176.00 145.00
C 171.75 149.49 167.53 155.51 162.00 158.00
C 157.58 162.33 152.38 165.95 147.00 169.00
C 147.00 169.00 146.36 168.77 146.00 169.00
C 139.54 167.40 124.47 163.68 124.01 176.01 C 126.93 185.44 143.47 185.03 145.00 175.00
C 157.95 173.09 166.50 160.68 177.00 154.00
C 181.69 149.00 185.36 143.03 191.00 139.00
C 215.04 113.27 235.26 84.14 264.25 64.25 C 305.79 21.64 405.63 51.30 387.77 118.77 C 368.68 165.65 298.61 173.75 263.78 140.22 C 267.64 130.60 256.40 120.22 247.00 127.00
C 244.03 129.62 243.54 133.12 244.00 137.00
C 251.34 142.89 261.39 143.66 267.92 152.08 C 309.39 179.94 378.94 167.22 396.00 117.00
C 399.09 99.75 396.38 81.38 385.00 68.00
C 381.51 63.87 377.04 59.51 373.00 56.00
C 366.88 52.25 360.17 48.40 354.00 45.00
C 333.75 37.68 309.80 36.95 289.00 43.00
M 257.00 129.00 
C 263.46 132.45 257.03 140.38 251.00 138.00 C 243.84 134.38 250.70 126.09 257.00 129.00
M 138.00 170.00 
C 143.40 174.24 137.15 182.04 131.92 179.07 C 124.91 175.23 131.68 167.15 138.00 170.00 Z"/>
</g>
<g fill="None" fill-opacity="0.0" stroke="#EAECEF" stroke-opacity="1.00" stroke-width="0.3"><path d="
M 199.00 57.00 
C 209.06 61.01 216.41 45.41 206.07 41.93 C 197.77 37.11 186.69 46.84 193.00 55.00
C 170.04 76.56 151.42 105.71 125.70 122.70 C 107.83 137.93 75.41 137.52 62.31 115.69 C 47.80 92.19 77.82 68.29 100.78 72.22 C 110.07 73.89 128.69 78.21 123.23 90.77 C 127.24 104.21 152.11 95.44 141.74 83.26 C 130.22 81.12 122.35 71.20 111.00 68.00 C 87.48 62.20 57.15 71.76 51.33 97.33 C 46.76 138.89 106.75 151.63 132.25 126.25 C 157.95 107.05 177.42 81.03 199.00 57.00
M 204.00 45.00 
C 209.77 48.00 204.87 55.41 199.00 53.00 C 192.35 50.10 198.40 42.47 204.00 45.00
M 135.00 84.00 
C 141.93 85.35 139.12 95.63 132.31 93.65 C 125.19 92.28 128.22 82.00 135.00 84.00 Z"/>
</g>
<g fill="None" fill-opacity="0.0" stroke="#001F3C" stroke-opacity="1.00" stroke-width="0.3"><path d="
M 147.00 169.00 
C 152.38 165.95 157.58 162.33 162.00 158.00
C 165.38 155.15 169.33 151.71 172.00 148.00
C 182.98 138.48 191.99 126.32 202.00 116.00
C 202.13 115.20 203.09 114.89 203.00 114.00
C 210.39 104.33 218.74 96.03 228.00 88.00
C 228.00 88.00 227.80 87.40 228.00 87.00
C 238.84 75.21 250.35 63.17 264.00 56.00
C 272.07 51.08 279.92 45.80 289.00 43.00
C 275.32 42.48 264.92 56.31 252.00 60.00
C 247.12 68.00 237.34 73.50 231.25 82.25 C 215.62 96.60 203.65 110.68 190.75 127.75 C 176.78 141.90 161.94 156.50 147.00 169.00 Z"/>
</g>
<g fill="None" fill-opacity="0.0" stroke="#031D38" stroke-opacity="1.00" stroke-width="0.3"><path d="
M 354.00 45.00 
C 360.17 48.40 366.88 52.25 373.00 56.00
C 377.88 58.58 382.48 63.14 385.00 68.00
C 396.38 81.38 399.09 99.75 396.00 117.00
C 399.65 113.17 398.01 108.01 399.00 103.00
C 404.17 102.62 409.11 103.33 414.00 104.00
L 414.00 65.00
C 405.71 64.45 395.36 64.15 392.00 73.00
C 381.50 61.66 369.00 47.31 354.00 45.00 Z"/>
</g>
<g fill="None" fill-opacity="0.0" stroke="#0E1319" stroke-opacity="1.00" stroke-width="0.3"><path d="
M 204.00 45.00 
C 198.40 42.47 192.35 50.10 199.00 53.00 C 204.87 55.41 209.77 48.00 204.00 45.00 Z"/>
</g>
<g fill="None" fill-opacity="0.0" stroke="#0A0C13" stroke-opacity="1.00" stroke-width="0.3"><path d="
M 115.00 53.00 
C 109.27 50.53 103.51 58.02 109.33 61.67 C 114.93 64.18 120.04 57.05 115.00 53.00 Z"/>
</g>
<g fill="None" fill-opacity="0.0" stroke="#2C98C6" stroke-opacity="1.00" stroke-width="0.3"><path d="
M 274.00 68.00 
C 254.44 82.93 236.33 101.50 221.00 121.00
C 217.84 125.32 214.23 128.72 210.00 132.00
C 202.28 141.93 193.54 151.58 184.00 160.00
C 176.74 158.15 167.20 162.30 169.00 171.00 C 172.59 177.76 182.85 177.56 188.00 173.00
C 189.23 169.77 189.31 166.20 188.00 163.00
C 207.94 143.59 223.56 123.11 243.25 103.25 C 262.37 83.38 283.35 60.55 312.00 58.00
C 314.61 56.44 320.46 56.28 323.00 58.00
C 343.81 58.40 365.39 71.40 372.03 91.97 C 383.16 123.29 342.81 154.63 312.92 146.08 C 308.44 134.42 287.38 141.14 293.00 153.00
C 298.88 155.67 306.16 157.89 312.00 153.00
C 315.42 150.79 320.82 152.58 325.00 152.00
C 360.20 153.11 397.64 109.28 371.25 77.75 C 349.20 47.43 301.97 45.74 274.00 68.00
M 306.00 143.00 
C 311.64 146.05 307.28 155.04 301.78 152.22 C 294.25 150.20 299.36 140.36 306.00 143.00
M 183.00 164.00 
C 188.61 168.37 180.78 176.05 175.78 172.22 C 168.65 167.37 177.24 161.63 183.00 164.00 Z"/>
</g>
<g fill="None" fill-opacity="0.0" stroke="#084767" stroke-opacity="1.00" stroke-width="0.3"><path d="
M 228.00 87.00 
C 239.24 75.54 251.73 65.41 264.00 56.00
C 250.35 63.17 238.84 75.21 228.00 87.00 Z"/>
</g>
<g fill="None" fill-opacity="0.0" stroke="#105072" stroke-opacity="1.00" stroke-width="0.3"><path d="
M 385.00 68.00 
C 382.48 63.14 377.88 58.58 373.00 56.00
C 377.04 59.51 381.51 63.87 385.00 68.00 Z"/>
</g>
<g fill="None" fill-opacity="0.0" stroke="#0C5276" stroke-opacity="1.00" stroke-width="0.3"><path d="
M 312.00 58.00 
C 315.67 58.00 319.33 58.00 323.00 58.00
C 320.46 56.28 314.61 56.44 312.00 58.00 Z"/>
</g>
<g fill="None" fill-opacity="0.0" stroke="#2A9ACA" stroke-opacity="1.00" stroke-width="0.3"><path d="
M 236.00 135.00 
C 238.21 132.04 241.02 129.10 244.00 127.00
C 258.65 108.55 276.01 89.44 296.92 77.92 C 318.90 62.61 361.40 77.61 355.33 108.33 C 348.35 136.13 307.83 140.29 289.00 122.00
C 297.80 109.64 272.32 101.59 271.00 116.00 C 272.81 126.87 288.45 126.92 295.92 134.08 C 316.37 143.87 344.41 139.78 358.00 120.00
C 358.73 118.66 359.34 117.36 360.00 116.00
C 360.49 108.98 363.02 102.42 362.00 95.00
C 357.79 76.48 337.63 66.31 320.00 66.00 C 275.52 68.24 249.64 113.70 220.75 142.75 C 217.38 151.16 199.43 146.24 203.70 159.30 C 207.47 168.05 224.06 166.36 223.98 156.02 C 220.84 147.20 232.35 142.17 236.00 135.00
M 284.00 112.00 
C 288.95 115.96 284.12 123.65 278.33 120.67 C 272.51 117.02 278.27 109.53 284.00 112.00
M 217.00 152.00 
C 222.85 156.95 215.21 163.54 209.93 160.07 C 202.09 156.91 211.18 148.86 217.00 152.00 Z"/>
</g>
<g fill="None" fill-opacity="0.0" stroke="#0D1319" stroke-opacity="1.00" stroke-width="0.3"><path d="
M 164.00 68.00 
C 157.68 65.27 152.51 72.59 158.33 76.67 C 163.41 79.10 168.91 71.61 164.00 68.00 Z"/>
</g>
<g fill="None" fill-opacity="0.0" stroke="#0B4C6C" stroke-opacity="1.00" stroke-width="0.3"><path d="
M 184.00 159.00 
C 183.77 159.16 184.00 160.00 184.00 160.00
C 193.54 151.58 202.28 141.93 210.00 132.00
C 213.19 128.02 217.03 124.11 221.00 121.00
C 236.33 101.50 254.44 82.93 274.00 68.00
C 238.15 91.26 215.28 129.80 184.00 159.00 Z"/>
</g>
<g fill="None" fill-opacity="0.0" stroke="#10171E" stroke-opacity="1.00" stroke-width="0.3"><path d="
M 135.00 84.00 
C 128.22 82.00 125.19 92.28 132.31 93.65 C 139.12 95.63 141.93 85.35 135.00 84.00 Z"/>
</g>
<g fill="None" fill-opacity="0.0" stroke="#094368" stroke-opacity="1.00" stroke-width="0.3"><path d="
M 203.00 114.00 
C 210.59 107.73 215.96 98.92 224.00 93.00
C 224.73 90.97 227.19 90.04 228.00 88.00
C 218.74 96.03 210.39 104.33 203.00 114.00 Z"/>
</g>
<g fill="None" fill-opacity="0.0" stroke="#1C6E97" stroke-opacity="1.00" stroke-width="0.3"><path d="
M 203.00 114.00 
C 203.09 114.89 202.13 115.20 202.00 116.00
C 200.30 119.44 197.19 121.92 195.00 125.00
C 205.39 115.13 213.39 103.10 224.00 93.00
C 215.96 98.92 210.59 107.73 203.00 114.00 Z"/>
</g>
<g fill="None" fill-opacity="0.0" stroke="#267AA3" stroke-opacity="1.00" stroke-width="0.3"><path d="
M 360.00 116.00 
C 363.76 110.84 363.00 103.50 363.00 97.00
C 362.81 96.34 363.10 95.03 362.00 95.00
C 363.02 102.42 360.49 108.98 360.00 116.00 Z"/>
</g>
<g fill="None" fill-opacity="0.0" stroke="#023352" stroke-opacity="1.00" stroke-width="0.3"><path d="
M 360.00 116.00 
C 359.34 117.36 358.73 118.66 358.00 120.00
C 364.40 114.79 365.51 104.40 363.00 97.00
C 363.00 103.50 363.76 110.84 360.00 116.00 Z"/>
</g>
<g fill="None" fill-opacity="0.0" stroke="#002641" stroke-opacity="1.00" stroke-width="0.3"><path d="
M 284.00 112.00 
C 278.27 109.53 272.51 117.02 278.33 120.67 C 284.12 123.65 288.95 115.96 284.00 112.00
M 283.00 114.00 
C 286.16 125.98 269.48 112.95 283.00 114.00 Z"/>
</g>
<g fill="None" fill-opacity="0.0" stroke="#010A15" stroke-opacity="1.00" stroke-width="0.3"><path d="
M 283.00 114.00 
C 269.48 112.95 286.16 125.98 283.00 114.00 Z"/>
</g>
<g fill="None" fill-opacity="0.0" stroke="#064264" stroke-opacity="1.00" stroke-width="0.3"><path d="
M 172.00 148.00 
C 173.66 147.46 174.33 145.44 176.00 145.00
C 183.30 139.31 188.68 131.69 195.00 125.00
C 197.19 121.92 200.30 119.44 202.00 116.00
C 191.99 126.32 182.98 138.48 172.00 148.00 Z"/>
</g>
<g fill="None" fill-opacity="0.0" stroke="#1F779B" stroke-opacity="1.00" stroke-width="0.3"><path d="
M 210.00 132.00 
C 214.23 128.72 217.84 125.32 221.00 121.00
C 217.03 124.11 213.19 128.02 210.00 132.00 Z"/>
</g>
<g fill="None" fill-opacity="0.0" stroke="#0D496D" stroke-opacity="1.00" stroke-width="0.3"><path d="
M 236.00 135.00 
C 239.07 133.74 240.46 129.22 244.00 129.00
C 242.77 131.20 242.19 135.17 244.00 137.00
C 243.54 133.12 244.03 129.62 247.00 127.00
C 245.89 126.32 244.40 128.62 244.00 127.00
C 241.02 129.10 238.21 132.04 236.00 135.00 Z"/>
</g>
<g fill="None" fill-opacity="0.0" stroke="#011A2F" stroke-opacity="1.00" stroke-width="0.3"><path d="
M 257.00 129.00 
C 250.70 126.09 243.84 134.38 251.00 138.00 C 257.03 140.38 263.46 132.45 257.00 129.00 Z"/>
</g>
<g fill="None" fill-opacity="0.0" stroke="#226F96" stroke-opacity="1.00" stroke-width="0.3"><path d="
M 177.00 154.00 
C 182.15 151.05 184.13 145.05 189.00 142.00
C 189.17 140.71 190.70 140.25 191.00 139.00
C 185.36 143.03 181.69 149.00 177.00 154.00 Z"/>
</g>
<g fill="None" fill-opacity="0.0" stroke="#022C4A" stroke-opacity="1.00" stroke-width="0.3"><path d="
M 177.00 154.00 
C 166.50 160.68 157.95 173.09 145.00 175.00
C 143.47 185.03 126.93 185.44 124.01 176.01 C 124.47 163.68 139.54 167.40 146.00 169.00
C 138.33 160.55 120.09 165.76 122.00 178.00
C 137.44 193.76 152.54 172.76 166.00 165.00
C 166.66 168.68 166.57 172.59 168.00 176.00
C 174.77 178.16 183.55 180.65 188.00 173.00
C 182.85 177.56 172.59 177.76 169.00 171.00 C 167.20 162.30 176.74 158.15 184.00 160.00
C 184.00 160.00 183.77 159.16 184.00 159.00
C 180.79 158.33 175.74 160.68 174.00 157.00
C 179.33 153.38 187.03 147.01 189.00 142.00
C 184.13 145.05 182.15 151.05 177.00 154.00 Z"/>
</g>
<g fill="None" fill-opacity="0.0" stroke="#002D49" stroke-opacity="1.00" stroke-width="0.3"><path d="
M 306.00 143.00 
C 299.36 140.36 294.25 150.20 301.78 152.22 C 307.28 155.04 311.64 146.05 306.00 143.00
M 305.00 145.00 
C 310.93 156.28 291.45 146.22 305.00 145.00 Z"/>
</g>
<g fill="None" fill-opacity="0.0" stroke="#1B6586" stroke-opacity="1.00" stroke-width="0.3"><path d="
M 172.00 148.00 
C 169.33 151.71 165.38 155.15 162.00 158.00
C 167.53 155.51 171.75 149.49 176.00 145.00
C 174.33 145.44 173.66 147.46 172.00 148.00 Z"/>
</g>
<g fill="None" fill-opacity="0.0" stroke="#000817" stroke-opacity="1.00" stroke-width="0.3"><path d="
M 305.00 145.00 
C 291.45 146.22 310.93 156.28 305.00 145.00 Z"/>
</g>
<g fill="None" fill-opacity="0.0" stroke="#01334F" stroke-opacity="1.00" stroke-width="0.3"><path d="
M 217.00 152.00 
C 211.18 148.86 202.09 156.91 209.93 160.07 C 215.21 163.54 222.85 156.95 217.00 152.00
M 216.00 154.00 
C 220.10 157.22 214.35 160.11 211.00 159.00 C 205.76 156.01 212.43 152.43 216.00 154.00 Z"/>
</g>
<g fill="None" fill-opacity="0.0" stroke="#0C5072" stroke-opacity="1.00" stroke-width="0.3"><path d="
M 312.00 153.00 
C 316.18 152.42 321.58 154.21 325.00 152.00
C 320.82 152.58 315.42 150.79 312.00 153.00 Z"/>
</g>
<g fill="None" fill-opacity="0.0" stroke="#010816" stroke-opacity="1.00" stroke-width="0.3"><path d="
M 216.00 154.00 
C 212.43 152.43 205.76 156.01 211.00 159.00 C 214.35 160.11 220.10 157.22 216.00 154.00 Z"/>
</g>
<g fill="None" fill-opacity="0.0" stroke="#002641" stroke-opacity="1.00" stroke-width="0.3"><path d="
M 183.00 164.00 
C 177.24 161.63 168.65 167.37 175.78 172.22 C 180.78 176.05 188.61 168.37 183.00 164.00
M 181.00 166.00 
C 183.55 175.25 169.68 166.97 181.00 166.00 Z"/>
</g>
<g fill="None" fill-opacity="0.0" stroke="#000A0E" stroke-opacity="1.00" stroke-width="0.3"><path d="
M 181.00 166.00 
C 169.68 166.97 183.55 175.25 181.00 166.00 Z"/>
</g>
<g fill="None" fill-opacity="0.0" stroke="#011A30" stroke-opacity="1.00" stroke-width="0.3"><path d="
M 138.00 170.00 
C 131.68 167.15 124.91 175.23 131.92 179.07 C 137.15 182.04 143.40 174.24 138.00 170.00 Z"/>
</g>
<g fill="#041321" fill-opacity="1.00" stroke="None"><path d="
M 0.00 212.00 
L 414.00 212.00
L 414.00 104.00
C 409.11 103.33 404.17 102.62 399.00 103.00
C 398.01 108.01 399.65 113.17 396.00 117.00
C 378.94 167.22 309.39 179.94 267.92 152.08 C 261.39 143.66 251.34 142.89 244.00 137.00
C 242.19 135.17 242.77 131.20 244.00 129.00
C 240.46 129.22 239.07 133.74 236.00 135.00
C 232.35 142.17 220.84 147.20 223.98 156.02 C 224.06 166.36 207.47 168.05 203.70 159.30 C 199.43 146.24 217.38 151.16 220.75 142.75 C 249.64 113.70 275.52 68.24 320.00 66.00 C 337.63 66.31 357.79 76.48 362.00 95.00
C 363.10 95.03 362.81 96.34 363.00 97.00
C 365.51 104.40 364.40 114.79 358.00 120.00
C 344.41 139.78 316.37 143.87 295.92 134.08 C 288.45 126.92 272.81 126.87 271.00 116.00 C 272.32 101.59 297.80 109.64 289.00 122.00
C 307.83 140.29 348.35 136.13 355.33 108.33 C 361.40 77.61 318.90 62.61 296.92 77.92 C 276.01 89.44 258.65 108.55 244.00 127.00
C 244.40 128.62 245.89 126.32 247.00 127.00
C 256.40 120.22 267.64 130.60 263.78 140.22 C 298.61 173.75 368.68 165.65 387.77 118.77 C 405.63 51.30 305.79 21.64 264.25 64.25 C 235.26 84.14 215.04 113.27 191.00 139.00
C 190.70 140.25 189.17 140.71 189.00 142.00
C 187.03 147.01 179.33 153.38 174.00 157.00
C 175.74 160.68 180.79 158.33 184.00 159.00
C 215.28 129.80 238.15 91.26 274.00 68.00
C 301.97 45.74 349.20 47.43 371.25 77.75 C 397.64 109.28 360.20 153.11 325.00 152.00
C 321.58 154.21 316.18 152.42 312.00 153.00
C 306.16 157.89 298.88 155.67 293.00 153.00
C 287.38 141.14 308.44 134.42 312.92 146.08 C 342.81 154.63 383.16 123.29 372.03 91.97 C 365.39 71.40 343.81 58.40 323.00 58.00
C 319.33 58.00 315.67 58.00 312.00 58.00
C 283.35 60.55 262.37 83.38 243.25 103.25 C 223.56 123.11 207.94 143.59 188.00 163.00
C 189.31 166.20 189.23 169.77 188.00 173.00
C 183.55 180.65 174.77 178.16 168.00 176.00
C 166.57 172.59 166.66 168.68 166.00 165.00
C 152.54 172.76 137.44 193.76 122.00 178.00
C 120.09 165.76 138.33 160.55 146.00 169.00
C 146.36 168.77 147.00 169.00 147.00 169.00
C 161.94 156.50 176.78 141.90 190.75 127.75 C 203.65 110.68 215.62 96.60 231.25 82.25 C 237.34 73.50 247.12 68.00 252.00 60.00
C 264.92 56.31 275.32 42.48 289.00 43.00
C 309.80 36.95 333.75 37.68 354.00 45.00
C 369.00 47.31 381.50 61.66 392.00 73.00
C 395.36 64.15 405.71 64.45 414.00 65.00
L 414.00 0.00
L 0.00 0.00
L 0.00 212.00 Z"/>
</g>
<g fill="#EAECEE" fill-opacity="1.00" stroke="None"><path d="
M 152.00 66.00 
C 141.82 85.69 181.61 82.15 167.75 66.25 C 154.91 64.19 147.59 50.99 135.07 46.93 C 121.35 40.83 106.56 38.30 91.00 39.00 C 51.34 38.12 6.60 75.25 19.22 117.78 C 32.86 159.01 82.49 174.80 121.78 163.78 C 182.29 143.55 211.17 79.32 258.77 42.77 C 266.95 29.18 289.43 48.48 289.77 28.23 C 278.55 14.05 267.65 32.88 256.23 36.23 C 216.88 65.66 191.93 110.08 153.03 140.03 C 115.12 176.96 28.56 164.41 25.00 103.00 C 27.96 42.77 113.93 27.54 152.00 66.00 Z"/>
</g>
<g fill="#10131B" fill-opacity="1.00" stroke="None"><path d="
M 283.00 26.00 
C 277.85 23.77 270.65 30.73 276.78 34.22 C 282.29 38.26 288.38 30.19 283.00 26.00 Z"/>
</g>
<g fill="#E4E6E9" fill-opacity="1.00" stroke="None"><path d="
M 232.00 45.00 
C 239.62 49.98 251.37 37.19 242.74 31.26 C 235.65 24.84 221.22 32.11 227.00 42.00
C 202.11 65.55 180.29 94.77 155.70 118.70 C 130.64 146.91 83.60 160.16 53.25 131.75 C 19.40 98.58 61.94 50.08 102.00 58.00
C 103.21 71.62 127.78 65.95 120.75 53.25 C 110.71 43.81 99.42 57.18 87.02 53.02 C 67.24 56.80 45.71 66.48 37.98 86.98 C 20.27 136.37 86.87 167.82 125.75 146.75 C 171.44 122.77 194.04 79.71 232.00 45.00 Z"/>
</g>
<g fill="#0B0F18" fill-opacity="1.00" stroke="None"><path d="
M 239.00 33.00 
C 233.83 30.60 227.45 37.53 233.00 41.00 C 238.34 43.03 244.04 37.24 239.00 33.00 Z"/>
</g>
<g fill="#2A9ACA" fill-opacity="1.00" stroke="None"><path d="
M 289.00 43.00 
C 279.92 45.80 272.07 51.08 264.00 56.00
C 251.73 65.41 239.24 75.54 228.00 87.00
C 227.80 87.40 228.00 88.00 228.00 88.00
C 227.19 90.04 224.73 90.97 224.00 93.00
C 213.39 103.10 205.39 115.13 195.00 125.00
C 188.68 131.69 183.30 139.31 176.00 145.00
C 171.75 149.49 167.53 155.51 162.00 158.00
C 157.58 162.33 152.38 165.95 147.00 169.00
C 147.00 169.00 146.36 168.77 146.00 169.00
C 139.54 167.40 124.47 163.68 124.01 176.01 C 126.93 185.44 143.47 185.03 145.00 175.00
C 157.95 173.09 166.50 160.68 177.00 154.00
C 181.69 149.00 185.36 143.03 191.00 139.00
C 215.04 113.27 235.26 84.14 264.25 64.25 C 305.79 21.64 405.63 51.30 387.77 118.77 C 368.68 165.65 298.61 173.75 263.78 140.22 C 267.64 130.60 256.40 120.22 247.00 127.00
C 244.03 129.62 243.54 133.12 244.00 137.00
C 251.34 142.89 261.39 143.66 267.92 152.08 C 309.39 179.94 378.94 167.22 396.00 117.00
C 399.09 99.75 396.38 81.38 385.00 68.00
C 381.51 63.87 377.04 59.51 373.00 56.00
C 366.88 52.25 360.17 48.40 354.00 45.00
C 333.75 37.68 309.80 36.95 289.00 43.00 Z"/>
</g>
<g fill="#EAECEF" fill-opacity="1.00" stroke="None"><path d="
M 199.00 57.00 
C 209.06 61.01 216.41 45.41 206.07 41.93 C 197.77 37.11 186.69 46.84 193.00 55.00
C 170.04 76.56 151.42 105.71 125.70 122.70 C 107.83 137.93 75.41 137.52 62.31 115.69 C 47.80 92.19 77.82 68.29 100.78 72.22 C 110.07 73.89 128.69 78.21 123.23 90.77 C 127.24 104.21 152.11 95.44 141.74 83.26 C 130.22 81.12 122.35 71.20 111.00 68.00 C 87.48 62.20 57.15 71.76 51.33 97.33 C 46.76 138.89 106.75 151.63 132.25 126.25 C 157.95 107.05 177.42 81.03 199.00 57.00 Z"/>
</g>
<g fill="#001F3C" fill-opacity="1.00" stroke="None"><path d="
M 147.00 169.00 
C 152.38 165.95 157.58 162.33 162.00 158.00
C 165.38 155.15 169.33 151.71 172.00 148.00
C 182.98 138.48 191.99 126.32 202.00 116.00
C 202.13 115.20 203.09 114.89 203.00 114.00
C 210.39 104.33 218.74 96.03 228.00 88.00
C 228.00 88.00 227.80 87.40 228.00 87.00
C 238.84 75.21 250.35 63.17 264.00 56.00
C 272.07 51.08 279.92 45.80 289.00 43.00
C 275.32 42.48 264.92 56.31 252.00 60.00
C 247.12 68.00 237.34 73.50 231.25 82.25 C 215.62 96.60 203.65 110.68 190.75 127.75 C 176.78 141.90 161.94 156.50 147.00 169.00 Z"/>
</g>
<g fill="#031D38" fill-opacity="1.00" stroke="None"><path d="
M 354.00 45.00 
C 360.17 48.40 366.88 52.25 373.00 56.00
C 377.88 58.58 382.48 63.14 385.00 68.00
C 396.38 81.38 399.09 99.75 396.00 117.00
C 399.65 113.17 398.01 108.01 399.00 103.00
C 404.17 102.62 409.11 103.33 414.00 104.00
L 414.00 65.00
C 405.71 64.45 395.36 64.15 392.00 73.00
C 381.50 61.66 369.00 47.31 354.00 45.00 Z"/>
</g>
<g fill="#0E1319" fill-opacity="1.00" stroke="None"><path d="
M 204.00 45.00 
C 198.40 42.47 192.35 50.10 199.00 53.00 C 204.87 55.41 209.77 48.00 204.00 45.00 Z"/>
</g>
<g fill="#0A0C13" fill-opacity="1.00" stroke="None"><path d="
M 115.00 53.00 
C 109.27 50.53 103.51 58.02 109.33 61.67 C 114.93 64.18 120.04 57.05 115.00 53.00 Z"/>
</g>
<g fill="#2C98C6" fill-opacity="1.00" stroke="None"><path d="
M 274.00 68.00 
C 254.44 82.93 236.33 101.50 221.00 121.00
C 217.84 125.32 214.23 128.72 210.00 132.00
C 202.28 141.93 193.54 151.58 184.00 160.00
C 176.74 158.15 167.20 162.30 169.00 171.00 C 172.59 177.76 182.85 177.56 188.00 173.00
C 189.23 169.77 189.31 166.20 188.00 163.00
C 207.94 143.59 223.56 123.11 243.25 103.25 C 262.37 83.38 283.35 60.55 312.00 58.00
C 314.61 56.44 320.46 56.28 323.00 58.00
C 343.81 58.40 365.39 71.40 372.03 91.97 C 383.16 123.29 342.81 154.63 312.92 146.08 C 308.44 134.42 287.38 141.14 293.00 153.00
C 298.88 155.67 306.16 157.89 312.00 153.00
C 315.42 150.79 320.82 152.58 325.00 152.00
C 360.20 153.11 397.64 109.28 371.25 77.75 C 349.20 47.43 301.97 45.74 274.00 68.00 Z"/>
</g>
<g fill="#084767" fill-opacity="1.00" stroke="None"><path d="
M 228.00 87.00 
C 239.24 75.54 251.73 65.41 264.00 56.00
C 250.35 63.17 238.84 75.21 228.00 87.00 Z"/>
</g>
<g fill="#105072" fill-opacity="1.00" stroke="None"><path d="
M 385.00 68.00 
C 382.48 63.14 377.88 58.58 373.00 56.00
C 377.04 59.51 381.51 63.87 385.00 68.00 Z"/>
</g>
<g fill="#0C5276" fill-opacity="1.00" stroke="None"><path d="
M 312.00 58.00 
C 315.67 58.00 319.33 58.00 323.00 58.00
C 320.46 56.28 314.61 56.44 312.00 58.00 Z"/>
</g>
<g fill="#2A9ACA" fill-opacity="1.00" stroke="None"><path d="
M 236.00 135.00 
C 238.21 132.04 241.02 129.10 244.00 127.00
C 258.65 108.55 276.01 89.44 296.92 77.92 C 318.90 62.61 361.40 77.61 355.33 108.33 C 348.35 136.13 307.83 140.29 289.00 122.00
C 297.80 109.64 272.32 101.59 271.00 116.00 C 272.81 126.87 288.45 126.92 295.92 134.08 C 316.37 143.87 344.41 139.78 358.00 120.00
C 358.73 118.66 359.34 117.36 360.00 116.00
C 360.49 108.98 363.02 102.42 362.00 95.00
C 357.79 76.48 337.63 66.31 320.00 66.00 C 275.52 68.24 249.64 113.70 220.75 142.75 C 217.38 151.16 199.43 146.24 203.70 159.30 C 207.47 168.05 224.06 166.36 223.98 156.02 C 220.84 147.20 232.35 142.17 236.00 135.00 Z"/>
</g>
<g fill="#0D1319" fill-opacity="1.00" stroke="None"><path d="
M 164.00 68.00 
C 157.68 65.27 152.51 72.59 158.33 76.67 C 163.41 79.10 168.91 71.61 164.00 68.00 Z"/>
</g>
<g fill="#0B4C6C" fill-opacity="1.00" stroke="None"><path d="
M 184.00 159.00 
C 183.77 159.16 184.00 160.00 184.00 160.00
C 193.54 151.58 202.28 141.93 210.00 132.00
C 213.19 128.02 217.03 124.11 221.00 121.00
C 236.33 101.50 254.44 82.93 274.00 68.00
C 238.15 91.26 215.28 129.80 184.00 159.00 Z"/>
</g>
<g fill="#10171E" fill-opacity="1.00" stroke="None"><path d="
M 135.00 84.00 
C 128.22 82.00 125.19 92.28 132.31 93.65 C 139.12 95.63 141.93 85.35 135.00 84.00 Z"/>
</g>
<g fill="#094368" fill-opacity="1.00" stroke="None"><path d="
M 203.00 114.00 
C 210.59 107.73 215.96 98.92 224.00 93.00
C 224.73 90.97 227.19 90.04 228.00 88.00
C 218.74 96.03 210.39 104.33 203.00 114.00 Z"/>
</g>
<g fill="#1C6E97" fill-opacity="1.00" stroke="None"><path d="
M 203.00 114.00 
C 203.09 114.89 202.13 115.20 202.00 116.00
C 200.30 119.44 197.19 121.92 195.00 125.00
C 205.39 115.13 213.39 103.10 224.00 93.00
C 215.96 98.92 210.59 107.73 203.00 114.00 Z"/>
</g>
<g fill="#267AA3" fill-opacity="1.00" stroke="None"><path d="
M 360.00 116.00 
C 363.76 110.84 363.00 103.50 363.00 97.00
C 362.81 96.34 363.10 95.03 362.00 95.00
C 363.02 102.42 360.49 108.98 360.00 116.00 Z"/>
</g>
<g fill="#023352" fill-opacity="1.00" stroke="None"><path d="
M 360.00 116.00 
C 359.34 117.36 358.73 118.66 358.00 120.00
C 364.40 114.79 365.51 104.40 363.00 97.00
C 363.00 103.50 363.76 110.84 360.00 116.00 Z"/>
</g>
<g fill="#002641" fill-opacity="1.00" stroke="None"><path d="
M 284.00 112.00 
C 278.27 109.53 272.51 117.02 278.33 120.67 C 284.12 123.65 288.95 115.96 284.00 112.00 Z"/>
</g>
<g fill="#010A15" fill-opacity="1.00" stroke="None"><path d="
M 283.00 114.00 
C 269.48 112.95 286.16 125.98 283.00 114.00 Z"/>
</g>
<g fill="#064264" fill-opacity="1.00" stroke="None"><path d="
M 172.00 148.00 
C 173.66 147.46 174.33 145.44 176.00 145.00
C 183.30 139.31 188.68 131.69 195.00 125.00
C 197.19 121.92 200.30 119.44 202.00 116.00
C 191.99 126.32 182.98 138.48 172.00 148.00 Z"/>
</g>
<g fill="#1F779B" fill-opacity="1.00" stroke="None"><path d="
M 210.00 132.00 
C 214.23 128.72 217.84 125.32 221.00 121.00
C 217.03 124.11 213.19 128.02 210.00 132.00 Z"/>
</g>
<g fill="#0D496D" fill-opacity="1.00" stroke="None"><path d="
M 236.00 135.00 
C 239.07 133.74 240.46 129.22 244.00 129.00
C 242.77 131.20 242.19 135.17 244.00 137.00
C 243.54 133.12 244.03 129.62 247.00 127.00
C 245.89 126.32 244.40 128.62 244.00 127.00
C 241.02 129.10 238.21 132.04 236.00 135.00 Z"/>
</g>
<g fill="#011A2F" fill-opacity="1.00" stroke="None"><path d="
M 257.00 129.00 
C 250.70 126.09 243.84 134.38 251.00 138.00 C 257.03 140.38 263.46 132.45 257.00 129.00 Z"/>
</g>
<g fill="#226F96" fill-opacity="1.00" stroke="None"><path d="
M 177.00 154.00 
C 182.15 151.05 184.13 145.05 189.00 142.00
C 189.17 140.71 190.70 140.25 191.00 139.00
C 185.36 143.03 181.69 149.00 177.00 154.00 Z"/>
</g>
<g fill="#022C4A" fill-opacity="1.00" stroke="None"><path d="
M 177.00 154.00 
C 166.50 160.68 157.95 173.09 145.00 175.00
C 143.47 185.03 126.93 185.44 124.01 176.01 C 124.47 163.68 139.54 167.40 146.00 169.00
C 138.33 160.55 120.09 165.76 122.00 178.00
C 137.44 193.76 152.54 172.76 166.00 165.00
C 166.66 168.68 166.57 172.59 168.00 176.00
C 174.77 178.16 183.55 180.65 188.00 173.00
C 182.85 177.56 172.59 177.76 169.00 171.00 C 167.20 162.30 176.74 158.15 184.00 160.00
C 184.00 160.00 183.77 159.16 184.00 159.00
C 180.79 158.33 175.74 160.68 174.00 157.00
C 179.33 153.38 187.03 147.01 189.00 142.00
C 184.13 145.05 182.15 151.05 177.00 154.00 Z"/>
</g>
<g fill="#002D49" fill-opacity="1.00" stroke="None"><path d="
M 306.00 143.00 
C 299.36 140.36 294.25 150.20 301.78 152.22 C 307.28 155.04 311.64 146.05 306.00 143.00 Z"/>
</g>
<g fill="#1B6586" fill-opacity="1.00" stroke="None"><path d="
M 172.00 148.00 
C 169.33 151.71 165.38 155.15 162.00 158.00
C 167.53 155.51 171.75 149.49 176.00 145.00
C 174.33 145.44 173.66 147.46 172.00 148.00 Z"/>
</g>
<g fill="#000817" fill-opacity="1.00" stroke="None"><path d="
M 305.00 145.00 
C 291.45 146.22 310.93 156.28 305.00 145.00 Z"/>
</g>
<g fill="#01334F" fill-opacity="1.00" stroke="None"><path d="
M 217.00 152.00 
C 211.18 148.86 202.09 156.91 209.93 160.07 C 215.21 163.54 222.85 156.95 217.00 152.00 Z"/>
</g>
<g fill="#0C5072" fill-opacity="1.00" stroke="None"><path d="
M 312.00 153.00 
C 316.18 152.42 321.58 154.21 325.00 152.00
C 320.82 152.58 315.42 150.79 312.00 153.00 Z"/>
</g>
<g fill="#010816" fill-opacity="1.00" stroke="None"><path d="
M 216.00 154.00 
C 212.43 152.43 205.76 156.01 211.00 159.00 C 214.35 160.11 220.10 157.22 216.00 154.00 Z"/>
</g>
<g fill="#002641" fill-opacity="1.00" stroke="None"><path d="
M 183.00 164.00 
C 177.24 161.63 168.65 167.37 175.78 172.22 C 180.78 176.05 188.61 168.37 183.00 164.00 Z"/>
</g>
<g fill="#000A0E" fill-opacity="1.00" stroke="None"><path d="
M 181.00 166.00 
C 169.68 166.97 183.55 175.25 181.00 166.00 Z"/>
</g>
<g fill="#011A30" fill-opacity="1.00" stroke="None"><path d="
M 138.00 170.00 
C 131.68 167.15 124.91 175.23 131.92 179.07 C 137.15 182.04 143.40 174.24 138.00 170.00 Z"/>
</g>
</svg>